<?xml version="1.0" encoding="UTF-8"?><svg id="Layer_1" xmlns="http://www.w3.org/2000/svg" width="397.39" height="494.43" viewBox="0 0 397.39 494.43"><path id="base2" d="M133.78,351.9c-1.04-5.54-2.73-10.83-4.72-16.04-6.21-16.28-15.38-30.83-25.93-44.58-11.75-15.32-24.84-29.49-37.64-43.91-14.75-16.61-28.58-33.89-39.49-53.36-7.59-13.56-13.99-27.64-18.7-42.47-2.28-7.17-4.75-14.26-5.96-21.73-1.49-9.14-1.84-18.23-.54-27.46,1.13-8,2.84-15.81,5.44-23.44,4.74-13.88,12.44-26.01,22.01-37.03,11.38-13.1,24.61-23.9,39.89-32.18,8.73-4.73,18.08-7.39,27.88-8.75,6.63-.92,13.24-1.37,19.9-.47,4.72.64,9.3,1.71,13.39,4.29,5.12,3.23,8.08,7.85,7.98,13.94-.26,15.96-6.56,28.79-20.1,37.74-5.28,3.49-11,6.14-16.71,8.8-6.2,2.88-12.4,5.74-18.13,9.51-4.85,3.19-9.32,6.85-13.56,10.79-.95.89-1.81,1.92-2.55,3-2.25,3.31-1.72,6.32,1.44,8.69,1.7,1.27,3.63,2.09,5.62,2.77,4.99,1.72,10.17,2.5,15.39,3.12,5.06.6,10.15.68,15.23.5,9.8-.33,19.16-2.49,28.23-6.35,5.55-2.36,9.87-5.91,13.29-10.69,4.63-6.46,4.61-15.42.07-21.39-4.67-6.15-14.15-6.66-19.46-1.06-3.4,3.59-3.22,9.87.36,13.34,1.85,1.78,4.54,1.99,6.78.64,1.08-.65,1.29-1.33.56-2.33-.36-.5-.75-.97-1.07-1.49-1.03-1.68-.79-3.4.62-4.77,1.32-1.28,2.7-1.28,4.49,0,2.36,1.7,2.94,4.22,1.35,6.68-2.11,3.26-5.22,5.19-9.01,5.8-3.4.55-5.92-1.1-7.76-3.87-3.1-4.68-3.17-13.59,3.61-18.52,10.28-7.49,25.29,1.04,26.2,12.04.83,10.17-3.02,17.92-11.02,23.79-1.67,1.23-2.55,2.43-2.27,4.51.21,1.59-.21,3.14-.69,4.65-2.59,8.29-7.43,14.99-14.24,20.35-8.4,6.62-18.03,10.24-28.5,11.9-8.54,1.35-17.1,1.32-25.67.42-4.46-.46-8.82-1.41-12.78-3.66-6.6-3.77-10.08-9.56-10.78-17.02-1.05-11.22,2.5-21.28,8.29-30.63,8.19-13.23,19.2-23.58,32.72-31.26,5.49-3.12,11.39-5.38,17.16-7.92,2.96-1.31,5.97-2.49,8.82-4.06,4.06-2.23,7.34-5.36,10.36-8.8.29-.33.52-.7.75-1.08,2.67-4.51,1.83-8.45-2.77-11.15-3.13-1.84-6.65-2.68-10.19-3.28-7.82-1.33-15.47-.25-23.16,1.38-14.11,3-25.93,10.31-36.92,19.2-9.69,7.84-17.75,17.16-24.07,27.94-6.17,10.52-10.32,21.75-12.11,33.86-2.75,18.54.35,36.07,8.62,52.8,1.52,3.06,2.88,6.26,4.95,8.95,3.05,3.95,5.81,8.2,10.08,11.09,3.86,2.61,7.72,5.21,12.42,6.04,8.89,1.56,17.62-1.49,21.91-8.47,4.47-7.27,1.9-17.14-5.44-21.57-5.86-3.54-13.78.69-15.65,5.24-1.03,2.52-.04,5.97,2.19,7.52.71.49,1.29.41,1.86-.18.73-.76,1.41-1.57,2.2-2.26,1.5-1.31,3.62-1.36,5.34-.19,1.54,1.04,2,2.66,1.35,4.65-.91,2.78-3.2,5.01-7.14,4.03-4.22-1.05-10.55-7.51-10.07-12.83.25-2.83,1.49-4.99,3.45-6.85,5.1-4.85,15.45-6.49,22.23.12,6.69,6.53,7.39,14.23,3.76,23.22-.72,1.78-1.84,3.34-3.13,5.04,1.75.58,3.06.7,4.03-.94.44-.75,1.19-1.05,2.04-.66.88.4.66,1.11.41,1.8-.54,1.48-.1,2.55,1.34,3.24.71.34,1.53.72,1.24,1.73-.28.98-1.15.98-1.95.83-1.72-.32-3.1,0-3.99,1.69-.27.51-.83.99-1.54.71-.59-.24-.62-.89-.51-1.36.55-2.48-.68-3.99-2.82-5.16-10.01,6.85-20.43,6.55-31.01.99-.37.9.25,1.27.59,1.71,7.14,9.23,14.92,17.91,22.73,26.56.92,1.01,1.77,1.38,3.2.89,12.33-4.23,24.07-9.6,34.53-17.49,6.2-4.67,11.67-10.07,16.1-16.48.73-1.05,1.62-2.05,1.94-3.63-3.36-.15-6.57-.03-9.78.28-2.63.25-5.24.31-7.84-.32-3.04-.73-4.96-2.6-5.5-5.66-1.11-6.27.1-12.25,3.11-17.75,4.51-8.25,11.49-13.36,20.83-14.86,4.51-.73,8.93-.05,12.98,2.23,2.05,1.16,4.03,2.45,6.08,3.71,4.43-3.26,8.22-7.26,11.83-11.45,5.77-6.71,11.15-13.75,17.59-19.87,4.4-4.18,9.06-8.01,14.19-11.25,3.79-2.39,7.92-3.7,12.44-3.53,2.12.08,4.15.62,6.08,1.49,2.19.99,3.46,2.66,3.36,5.15-.2,5.06-1.8,9.62-5.07,13.51-1.78,2.12-3.59,2.58-6.1,1.46-4.12-1.83-7.48-1.02-10.78,2.02-7.12,6.57-13.25,13.98-19.16,21.6-5.59,7.2-11.11,14.46-18.02,20.5-2.31,2.02-4.66,3.99-7.31,5.56-1.1.65-1.87,1.5-2.41,2.67-2.49,5.41-4.92,10.84-7.56,16.17-3.71,7.49-8.15,14.49-14.48,20.12-3.86,3.43-8.65,4.92-13.4,6.41-8.35,2.62-16.87,4.59-25.53,5.92-.17.03-.35.02-.52.06-.97.21-2.41-.41-2.8.7-.31.86.98,1.51,1.61,2.2,9.5,10.31,19.11,20.53,28.12,31.27.9,1.08,1.79,1.4,3.18.91,14.28-5.02,27.57-11.74,38.38-22.62,2.7-2.71,5.28-5.58,7.31-9.06-2.29-.6-4.44-.6-6.6-.6-2.8,0-5.62.04-8.41-.17-2.97-.22-5.69-1.07-7.18-4.05-.44-.88-.66-1.78-.74-2.76-1.17-14.67,8.89-27.22,21.99-30.27,6.37-1.48,12.33-.62,17.81,3.09,1.55,1.05,1.6,1.04,2.46-.63,3.57-6.93,7.1-13.88,11.47-20.35,5.51-8.14,11.91-15.38,20.59-20.3,1.67-.95,3.47-1.7,5.07-2.74,2.21-1.44,4.1-3.28,5.78-5.32,1.64-1.99,3.72-3.43,5.93-4.72,1.02-.6,1.61-.66,2.2.62,2.44,5.31,5.99,9.9,9.94,14.14,3,3.22,3.72,6.97,2.96,10.97-1.36,7.17-4.74,13.32-10.34,18.13-2.44,2.09-5.2,3.51-8.48,3.79-3.02.26-5.72-.51-8.12-2.32-1.26-.95-2.45-1.99-3.75-2.89-2.99-2.06-5.02-2.03-7.89.22-2.36,1.85-4.27,4.14-6.04,6.55-6.34,8.63-11.79,17.82-17.13,27.08-4.9,8.5-9.37,17.23-14.12,25.8-3.65,6.59-8.25,12.6-14.17,17.45-3.41,2.79-7.41,4.23-11.57,5.38-7.08,1.95-14.27,3.37-21.6,4.45-.25,1.06.53,1.59,1.04,2.25,7.9,10.19,15.34,20.69,21.64,31.97,7.12,12.74,12.72,26.08,16.06,40.34,1.56,6.65,2.62,13.36,3.18,20.19.4,4.91.49,9.81.38,14.71-.25,11.43-2.03,22.66-4.92,33.7-4.17,15.93-10.3,31.06-18.79,45.19-7.55,12.56-16.59,23.9-28.23,32.97-6.75,5.27-14.11,9.44-22.44,11.7-8.86,2.41-17.65,2.27-26.34-.78-1.55-.54-3.19-1.04-4.22-2.8,1.3-1.03,2.79-.79,4.18-.57,2.27.37,4.54.4,6.82.35,5.84-.12,9.01-2.76,10.38-8.45.71-2.96,1.16-5.97,2.45-8.82,2.53-5.58,9.59-7.26,14.64-3.36,2.41,1.87,3.22,4.49,3.33,7.4.04,1.11-.2,2.24.14,3.5,1.96-.91,3.49-2.21,5.07-3.43,11.8-9.11,20.59-20.68,27.42-33.82,5.85-11.25,9.89-23.15,12.36-35.56,1.44-7.22,2.47-14.52,2.27-21.89-.15-5.22.26-10.52-1.48-15.61-2.31-6.76-4.89-13.36-10.48-18.2-6.04-5.23-12.99-8.02-21.04-7.01-14.38,1.81-20.52,15.95-15.2,27.75,1.02,2.27,2.7,4.1,5.04,5.17,4.5,2.06,9.08,2.69,13.68.38,3.45-1.73,5.04-6.15,3.72-9.72-.36-.97-1.06-1.1-1.89-.95-1.2.21-2.39.52-3.6.73-2.64.45-4.89-.92-5.97-3.59-.85-2.1-.13-4.1,2.04-5.67,3.82-2.76,7.94-2.18,10.48,1.74,3.16,4.87,4.05,10.21,2.51,15.86-1.15,4.23-4.17,6.63-8.22,7.7-9.35,2.47-23.14-3.16-24.88-18.14-1.75-15.01,14.05-28.24,26.8-26.97,6.75.67,12.63,3.41,17.93,7.53,2.42,1.88,4.37,4.22,6.62,6.39Z"/><path id="base1" d="M292.22,305.97c1.76-.47,3.22-1.41,4.69-2.27,7.19-4.21,12.87-9.9,16.84-17.28,3.33-6.18,3.65-12.69,2.2-19.39-.52-2.39-1.16-4.76-1.84-7.12-1.81-6.3-1.28-12.44.93-18.56,3.56-9.9,9.18-18.26,17.68-24.58,1.66-1.23,1.63-1.26.24-2.89-1.25-1.47-2.3-3.07-3.08-4.86-1.65-3.75-.99-7.37.56-10.92,5.05-11.57,13.8-18.52,26.25-20.61,3.1-.52,6.34-.43,9.39.55,4.29,1.38,8.28.54,12.22-1.19,2.56-1.12,5.13-2.24,7.7-3.37,1.46-.64,3.01-.94,4.56-1.19,3.69-.59,6.67,1.98,6.83,5.74.13,2.95-.29,5.8-1.62,8.41-4.77,9.38-9.78,18.62-17.14,26.32-5.16,5.39-11.01,9.73-18.21,12.05-2.92.94-5.96,1.36-8.96,1.96-5.36,1.08-10.46,2.83-15.31,5.34-2.3,1.19-4.15,2.88-5.38,5.2-.84,1.58-.95,3.1-.14,4.77,1.52,3.15,2.7,6.44,3.53,9.85,1.41,5.83,1.1,11.65-.06,17.45-3.27,16.36-10.67,30.47-23.06,41.8-10.36,9.48-22.56,14.93-36.55,16.12-9.79.83-19.06-.77-27.19-6.77-7.53-5.56-11.23-13.23-12.11-22.38-1.02-10.71,2.23-20.41,7.15-29.68,4.92-9.27,11.34-17.48,18.2-25.37,9.62-11.05,20.37-20.99,30.58-31.47,7.65-7.85,15-15.97,20.76-25.37,1.74-2.84,3.15-5.83,4.23-8.99.7-2.04.85-4.13.63-6.22-.33-3.05-2.12-5.11-4.84-6.38-1.83-.86-3.76-1.38-5.79-1.56-7.98-.71-15.7.74-23.3,2.93-11.67,3.35-22.72,8.13-32.95,14.72-3.69,2.38-7.18,5.03-10.25,8.19-.91.94-1.79,1.93-2.58,2.98-1.3,1.73-1.23,2,.69,2.84,3.93,1.72,7.98,2.27,12.29,1.75,5.22-.63,10.32-1.9,15.51-2.66,2.01-.29,4.02-.29,6.03-.28,1.65,0,2.83.85,3.55,2.29.7,1.42,1.19,2.89,1.2,4.52.08,8.91-3.17,16.56-8.76,23.34-4.32,5.24-9.72,9.01-15.77,11.98-12.19,5.98-24.97,9.87-38.43,11.81-10.08,1.46-17.48,7.23-22.83,15.72-3.01,4.77-5.1,9.9-6.62,15.37-1.68,6.08-3.38,12.12-4.2,18.38-.85,6.51-1.49,13.05-1.83,19.61-.35,6.65-.8,13.3-1.34,19.93-.26,3.14-.39,6.3-.57,9.44-.25,4.46-.65,8.91-.76,13.39-.13,5.16-.51,10.32-1.52,15.4-.17.85-.38,1.73-.74,2.51-.49,1.06-1.33,1.09-1.96.07-1.17-1.9-1.57-4.08-2.02-6.21-1.44-6.85-2.41-13.77-3.29-20.72-1.46-11.58-2.23-23.19-2.03-34.87.24-14.16,1.98-28.09,6.06-41.69,3.41-11.34,8.5-21.83,15.36-31.48,6.03-8.48,13.94-14.7,23.11-19.4,1.44-.74,2.17-1.63,2.59-3.24,3.67-14.07,10.23-26.54,20.47-37.02,10.46-10.71,21.66-20.46,34.64-28.02,6.31-3.67,12.9-6.72,20.14-8.05,6.91-1.27,13.87-2.08,20.89-.86,5.61.98,11.11,2.44,14.64,7.3,6.03,8.31,7.75,17.34,3.14,26.92-3.08,6.4-6.63,12.53-10.57,18.45-2.59,3.9-6.06,7.03-9.19,10.45-13.79,15.06-27.53,30.17-40.51,45.93-5.13,6.23-9.79,12.8-13.55,19.97-3.05,5.82-5.07,11.92-5.05,18.55.03,9.36,5.6,16.26,14.74,18.15,6.66,1.37,13.24.58,19.73-1.2.58-.16,1.19-.41,1.66-.77,6.35-4.82,11.79-10.37,13.06-18.65,1.09-7.13-.32-13.65-6.05-18.61-6.37-5.52-16.92-4.4-22.1,2.26-3.53,4.53-2.06,12.77,2.82,15.85,2.17,1.37,5.73.98,7.6-.77.64-.6.65-1.2.21-1.86-.49-.73-1.07-1.39-1.55-2.13-1.28-2-.95-4.36.79-5.94,1.38-1.26,3.38-1.18,5.3.2,2.7,1.95,3.41,4.76,1.68,7.6-2.51,4.14-6.28,6.6-11.04,7.24-4.6.62-8.24-1.81-10.25-6.53-3.12-7.36-1.69-17.06,8.55-21.96,5.84-2.8,11.46-1.9,16.94.73,9.29,4.46,12.47,12.77,11.4,22.46-.59,5.35-2.64,10.13-5.88,14.43-.43.57-1.26.99-1.14,2.12Z"/><path id="base3" d="M210.09,315.41c.59.77,1.47.99,2.21,1.41,3.08,1.72,5.87,3.81,8.37,6.3,3.69,3.68,5,8.04,3.21,12.98-2.94,8.11-8.01,14.54-15.76,18.57-3.81,1.98-7.6,1.77-11.12-.86-1.19-.89-2.36-1.82-3.44-2.83-2.68-2.52-5.31-5.09-7.94-7.66-1.84-1.79-1.95-2.3-.28-4.15,6.63-7.38,11.86-15.83,18.2-23.43.16-.19.21-.46.35-.79-5.5-3.15-9.36-8.14-13.98-12.27-1.82-1.62-1.84-2.24-.28-3.96,5.94-6.58,10.71-14.07,16.25-20.96.49-.61.99-1.23,1.49-1.84,2.05-2.49,2.34-2.7,5.34-1.47,5.17,2.1,9.75,5.11,13.42,9.41,3.75,4.4,3.47,9.26,1.24,14.03-3.54,7.57-8.61,13.81-16.69,17-.22.09-.37.33-.56.51Z"/><path id="base_4" d="M217.96,124.42c.46-1.12,1.39-1.14,2.19-1.41,14-4.76,26.74-11.89,37.99-21.42,6.88-5.83,12.91-12.62,17.69-20.36,1.75-2.83,3.3-5.79,3.04-9.42-.96-.05-1.41.69-1.99,1.1-2.38,1.67-4.98,2.54-7.89,2.4-2.49-.12-4.06-1.51-4.49-3.95-1.08-6.2,2.5-12.7,8.62-15.67,2.16-1.05,4.39-1.66,6.82-1.57,4.33.16,7.01,2.69,7.29,7.02.16,2.47,0,4.98-.63,7.32-2.49,9.27-5.74,18.27-12.05,25.73-5.55,6.56-11.38,12.86-18.4,17.94-3.59,2.6-7.52,4.44-11.65,5.96-8.39,3.09-16.97,5.43-25.85,6.56-.15.02-.32-.1-.7-.22Z"/><path id="out61" d="M254.65,302.87c.27-1.15-.32-2.1-1.48-2.84-.67-.42-1.31-1-.89-1.94.36-.8,1.15-.76,1.83-.65,1.52.24,2.75-.03,3.6-1.46.41-.68,1.13-.88,1.84-.53.76.37.85,1.05.51,1.79-.78,1.66-.02,2.66,1.44,3.36.77.37,1.39.88,1.03,1.83-.31.82-1.11.82-1.8.71-1.79-.29-3.3-.09-4.19,1.78-.23.49-.77.72-1.35.53-.62-.2-.64-.78-.66-1.29-.02-.34.06-.69.12-1.29Z"/><path id="outl60" d="M107.81,90.39c-1.51-.4-2.58.09-3.3,1.43-.34.64-.92,1.3-1.63,1.05-.81-.29-1.02-1.22-.74-2.02.55-1.59.03-2.67-1.32-3.54-.68-.43-1.23-1.08-.83-1.97.36-.81,1.19-.67,1.84-.59,1.5.18,2.72-.04,3.54-1.52.37-.67,1.18-.75,1.87-.43.84.39.72,1.14.42,1.8-.64,1.39-.15,2.31,1.04,3.08.74.48,2.09.69,1.6,1.98-.43,1.13-1.59.78-2.5.73Z"/><path id="outl59" d="M154.83,170.07c-1.84-.32-2.88.1-3.58,1.33-.35.62-.79,1.28-1.63,1.02-.86-.26-.85-1.1-.72-1.77.33-1.64,0-2.92-1.53-3.81-.65-.38-1.01-1.06-.65-1.8.35-.73,1.08-.84,1.81-.64,1.45.39,2.55.04,3.36-1.29.45-.73,1.2-1.07,2.05-.68,1,.46.7,1.31.39,2.03-.58,1.34,0,2.17,1.09,2.84.37.23.78.41,1.12.68.46.36.58.85.37,1.4-.18.46-.53.67-1.01.68-.52,0-1.04,0-1.08,0Z"/><path id="outl58" d="M191.97,367.75c-1.59-.43-2.63.14-3.37,1.43-.36.63-.85,1.24-1.65.96-.82-.28-.82-1.11-.68-1.79.33-1.62.04-2.91-1.5-3.8-.64-.37-.98-1.04-.65-1.79.29-.68.96-.72,1.58-.62,1.59.25,2.91-.02,3.81-1.55.4-.67,1.18-.75,1.88-.42.85.4.71,1.16.41,1.8-.66,1.39-.22,2.33,1,3.08.76.47,2.09.71,1.61,1.98-.42,1.13-1.59.81-2.44.73Z"/><path id="outl57" d="M218.15,260.18c.28-1.39-.09-2.35-1.18-3.06-.73-.48-1.59-1.05-1.15-2.07.44-1.02,1.47-.74,2.31-.65,1.22.13,2.19-.08,2.88-1.27.48-.82,1.35-1.18,2.24-.62.75.47.4,1.2.25,1.89-.42,1.83-.34,1.99,1.65,3.22.61.38,1.33.64,1.03,1.54-.31.95-1.16,1.01-1.95.87-1.68-.3-3.1-.11-4.03,1.55-.28.5-.8,1.09-1.48.76-.69-.34-.87-1.04-.66-1.8.05-.17.08-.34.08-.36Z"/><path id="outl56" d="M158.52,103.53c-1.73-.43-2.73.04-3.45,1.23-.41.68-.88,1.41-1.84.98-.8-.36-.79-1.18-.58-1.82.52-1.61-.02-2.71-1.39-3.53-.66-.4-1.03-.99-.83-1.75.24-.9,1.05-.82,1.72-.74,1.6.2,2.87-.11,3.76-1.63.38-.64,1.24-.69,1.89-.32.79.44.6,1.18.29,1.84-.66,1.41,0,2.31,1.13,3.06.74.49,2.09.72,1.51,1.99-.47,1.02-1.61.81-2.21.69Z"/><path id="outl55" d="M148.91,300.34c.4-1.42-.27-2.44-1.49-3.23-.63-.41-1.01-1-.68-1.78.3-.71.96-.69,1.57-.62,1.56.18,2.94.05,3.81-1.56.38-.69,1.19-.73,1.88-.43.87.38.69,1.15.39,1.8-.71,1.54-.09,2.52,1.26,3.21.8.41,1.68.76,1.23,1.9-.44,1.12-1.4.83-2.24.62-1.32-.32-2.43-.1-3.19,1.12-.47.74-.94,1.65-2,1.18-.9-.41-.51-1.37-.55-2.2Z"/><path id="outl54" d="M36.55,91.43c-1.89-.77-3.36-.09-4.42,1.79-.25.45-.79.74-1.35.41-.48-.29-.78-.83-.62-1.33.64-1.97,0-3.35-1.72-4.4-.51-.31-.77-.96-.42-1.62.29-.54.83-.62,1.35-.56,1.64.19,3.1.12,4.05-1.58.38-.67,1.19-.72,1.88-.39.67.33.71,1.01.45,1.58-.87,1.92.02,2.94,1.7,3.64.61.26,1.02.7.85,1.42-.19.84-.82,1.04-1.77,1.02Z"/><path id="outl53" d="M192.98,132.38c.31-1.12-.27-2.01-1.27-2.73-.35-.25-.72-.52-.96-.87-.61-.88-.22-1.72.87-1.89.42-.07.87-.02,1.3.03,1.2.14,2.23.03,2.88-1.23.39-.75,1.15-1.12,2-.76,1.03.43.71,1.32.44,2.02-.64,1.64.26,2.45,1.51,3.12.7.38,1.52.74,1.15,1.74-.34.93-1.21.93-1.99.74-1.62-.4-2.91-.13-3.8,1.43-.34.6-.86,1.28-1.66.93-.75-.32-.67-1.14-.6-1.84.02-.17.06-.34.13-.69Z"/><path id="outl52" d="M115.36,230.01c-1.6-.44-2.76.2-3.61,1.69-.3.52-.82.96-1.53.59-.54-.28-.71-.86-.57-1.35.59-1.97-.06-3.35-1.79-4.38-.44-.26-.69-.82-.51-1.38.22-.68.83-1,1.44-.86,1.82.43,3.21.06,4.24-1.62.29-.47,1.06-.65,1.67-.3.78.45.72,1.21.4,1.84-.83,1.59.04,2.42,1.24,3.19.67.43,1.83.61,1.36,1.84-.42,1.1-1.44.71-2.36.75Z"/><path id="outl51" d="M173.31,236.4c.38-1-.11-1.77-.89-2.44-.46-.4-.99-.75-1.32-1.23-.52-.78-.11-1.71.81-1.68,1.88.05,3.63.09,4.77-1.86.28-.49,1.12-.48,1.7-.17.69.37.66,1.06.39,1.61-.87,1.8-.05,2.8,1.5,3.53.77.36,1.47.88,1.03,1.79-.39.78-1.27.88-2.08.62-1.68-.53-2.88-.03-3.74,1.49-.36.64-.91,1.17-1.7.78-.74-.37-.73-1.12-.6-1.84.03-.17.07-.34.13-.59Z"/><path id="outl50" d="M335.87,168.18c.26-1.22-.03-2.14-1.05-2.79-.29-.19-.55-.43-.83-.64-.49-.38-.46-.92-.39-1.43.1-.67.66-.79,1.19-.75,1.8.12,3.44.04,4.52-1.78.31-.53,1.17-.4,1.72-.16.72.32.59,1.1.36,1.61-.87,1.94-.04,2.96,1.71,3.62.62.23,1.06.68.88,1.4-.2.81-.86,1.06-1.61,1.04-.34,0-.68-.13-1.02-.22-1.25-.33-2.22.04-2.96,1.09-.48.68-.85,1.76-1.96,1.26-1.04-.47-.59-1.5-.55-2.26Z"/><path id="outl49" d="M316.93,215.88c-1.28-.3-2.37.2-3.12,1.51-.36.62-.84,1.24-1.67.88-.8-.35-.76-1.17-.61-1.83.38-1.69-.19-2.88-1.64-3.76-.55-.33-.88-.89-.66-1.57.24-.72.9-.81,1.52-.73,1.67.21,3.08.05,4.04-1.64.35-.62,1.26-.55,1.93-.25.59.26.67.84.42,1.33-1.03,2.02-.03,3.09,1.71,3.89.59.27,1.03.72.77,1.45-.23.68-.78.9-1.45.86-.35-.02-.7-.07-1.23-.13Z"/><path id="outl48" d="M79.78,86.84c.42-1.56-.25-2.47-1.34-3.25-.62-.45-1.38-.96-.94-1.92.37-.8,1.16-.7,1.85-.62,1.5.17,2.74-.06,3.57-1.53.38-.67,1.2-.79,1.88-.47.81.38.72,1.17.41,1.81-.76,1.57-.01,2.49,1.27,3.2.79.43,1.74.8,1.28,1.91-.42,1.04-1.45.88-2.29.64-1.37-.38-2.4-.03-3.2,1.12-.44.64-.87,1.53-1.8,1.21-1.14-.38-.63-1.43-.69-2.11Z"/><path id="outl47" d="M54.48,70.66c-1.52-.4-2.6.27-3.4,1.63-.32.54-.78,1.01-1.49.76-.7-.25-.81-.94-.69-1.53.38-1.82-.05-3.24-1.73-4.22-.46-.27-.63-.83-.47-1.39.21-.75.85-.86,1.46-.79,1.66.21,3.09.09,4.04-1.6.37-.65,1.25-.6,1.91-.27.7.35.6,1.04.33,1.6-.7,1.48-.23,2.5,1.11,3.28.69.41,1.85.54,1.45,1.78-.43,1.3-1.51.87-2.52.77Z"/><path id="outl46" d="M174.73,152.12c-1.32-.29-2.33.37-3.05,1.66-.31.57-.8,1.07-1.47.84-.8-.27-.96-1.08-.76-1.76.5-1.69.03-2.9-1.46-3.79-.68-.41-.95-1.06-.7-1.8.24-.72.96-.76,1.55-.67,1.59.25,2.93.13,3.82-1.5.36-.65,1.19-.75,1.88-.44.86.38.73,1.16.43,1.8-.72,1.56-.06,2.49,1.28,3.2.67.36,1.66.59,1.38,1.63-.29,1.1-1.29.99-2.18.91-.17-.02-.35-.04-.72-.09Z"/><path id="outl45" d="M124.38,401.67c-1.93-.06-4.35-2.5-4.26-4.29.08-1.66,1.4-2.75,3.24-2.68,2.38.09,4.53,2.04,4.41,3.99-.11,1.65-1.67,3.03-3.38,2.97Z"/><path id="outl44" d="M295.52,188.04c-1.82,0-4.44-2.49-4.42-4.2.02-1.58,1.41-2.81,3.18-2.79,2.43.02,4.52,1.83,4.48,3.87-.03,1.7-1.52,3.12-3.24,3.12Z"/><path id="outl43" d="M253,341.32c.03,1.59-1.48,3.19-3.1,3.29-1.76.11-4.59-2.54-4.61-4.31-.01-1.58,1.35-2.78,3.16-2.77,2.37,0,4.51,1.8,4.54,3.79Z"/><path id="outl42" d="M96.77,323.8c.06,1.84-1.32,3.39-3.13,3.52-2.08.15-3.63-1.6-3.69-4.13-.04-2.09.92-3.23,2.8-3.29,2.2-.07,3.95,1.63,4.02,3.91Z"/><path id="outl41" d="M102.67,318.83c2.46.02,4.5,1.76,4.49,3.83-.01,1.68-1.53,3.19-3.18,3.17-1.85-.02-4.4-2.46-4.38-4.2.01-1.71,1.23-2.82,3.08-2.81Z"/><path id="outl40" d="M140.44,273.37c0-2.03,1.12-3.29,2.9-3.28,1.93.02,3.88,2.1,3.91,4.17.03,1.8-1.48,3.34-3.28,3.37-2.16.03-3.54-1.63-3.53-4.27Z"/><path id="outl39" d="M253.68,132.36c2.06.02,3.78,1.94,3.77,4.22,0,1.87-1.47,3.35-3.27,3.34-2.09-.02-3.53-1.81-3.52-4.37,0-1.94,1.21-3.21,3.02-3.19Z"/><path id="outl38" d="M197.8,70.68c-.04,1.72-1.47,3.06-3.24,3.05-1.99-.02-4.26-2.28-4.24-4.23.02-1.8,1.14-2.8,3.08-2.75,2.45.07,4.45,1.86,4.4,3.93Z"/><path id="outl37" d="M288.34,186.22c-.03,1.9-1.41,3.27-3.3,3.28-2.11.02-3.51-1.7-3.5-4.3,0-1.97,1.15-3.18,2.99-3.14,2.09.04,3.85,1.96,3.81,4.17Z"/><path id="outl36" d="M193.06,209.7c-.02,1.76-1.61,3.33-3.35,3.31-2.04-.02-3.49-1.84-3.46-4.39.02-2.01,1.17-3.2,3-3.11,2.05.1,3.84,2.07,3.82,4.19Z"/><path id="outl35" d="M239.14,345.94c-2.17-.05-3.51-1.79-3.41-4.42.07-1.82,1.25-3,2.98-3,2.01,0,3.88,2.07,3.85,4.23-.03,1.89-1.47,3.23-3.41,3.19Z"/><path id="outl34" d="M267.89,135.3c-.03,1.71-1.48,3.11-3.21,3.11-1.87,0-4.32-2.39-4.31-4.21,0-1.71,1.21-2.77,3.1-2.74,2.5.04,4.47,1.74,4.43,3.84Z"/><path id="outl33" d="M87.44,40.58c.09,1.21-.48,2.15-1.57,2.72-1.26.66-2.5.66-3.63-.34-1.25-1.1-2.63-2.12-2.25-4.1.14-.71.59-1.32,1.2-1.65,1.32-.72,2.7-.6,4.01.08,1.29.67,2.29,1.6,2.25,3.28Z"/><path id="outl32" d="M70.36,40.82c.03-2.03,1.13-3.12,3.06-3.04,2.01.08,3.86,2.18,3.75,4.25-.1,1.83-1.6,3.24-3.43,3.21-2.08-.03-3.41-1.78-3.37-4.42Z"/><path id="outl31" d="M114.01,403.21c-2.06,0-3.52-1.8-3.51-4.35,0-2.04,1.05-3.13,2.99-3.12,2.06.01,3.85,1.94,3.84,4.13-.01,1.82-1.52,3.34-3.31,3.33Z"/><path id="outl30" d="M157.62,272.9c.04,1.7-1.38,3.22-3.08,3.3-1.77.08-4.41-2.32-4.51-4.1-.09-1.65,1.18-2.92,2.98-2.96,2.35-.06,4.57,1.75,4.61,3.76Z"/><path id="outl29" d="M37.16,128.54c2.45.02,4.46,1.74,4.48,3.83.02,1.74-1.35,3.21-3.05,3.27-1.78.06-4.39-2.4-4.45-4.18-.05-1.63,1.3-2.94,3.01-2.92Z"/><path id="outl28" d="M203.43,208.34c0,1.68-1.48,3.17-3.19,3.21-1.77.04-4.37-2.44-4.42-4.21-.04-1.66,1.22-2.81,3.08-2.81,2.46,0,4.53,1.74,4.52,3.82Z"/><path id="outl27" d="M184.03,75.24c-2.08-.04-3.45-1.79-3.43-4.4.01-1.95,1.17-3.08,3.09-3.03,2.03.05,3.8,2.04,3.74,4.2-.05,1.83-1.56,3.27-3.39,3.24Z"/><path id="outl26" d="M302.14,245.73c1.22-.03,2.5.63,3.43,1.91,1.13,1.55.75,3.52-.83,4.57-1.3.86-2.78.63-4.25-.66-1.73-1.53-2.21-2.86-1.53-4.3.46-1,1.43-1.52,3.18-1.51Z"/><path id="outl25" d="M24.6,132.86c0-2.06,1.09-3.34,2.86-3.33,2,0,3.86,2.04,3.88,4.23.01,1.91-1.4,3.27-3.37,3.24-2.11-.03-3.35-1.56-3.37-4.14Z"/><path id="outl24" d="M289.02,250.02c-.11-1.87.87-3.12,2.56-3.27,2.23-.2,4.12,1.61,4.19,4,.05,1.92-1.26,3.37-3.12,3.46-2.06.1-3.48-1.54-3.63-4.19Z"/><path id="outl23" d="M257.07,123.74c1.95-.03,3.71,1.75,3.68,3.71-.03,1.62-1.39,3-3.02,3.06-1.95.07-4.1-1.91-4.04-3.73.06-1.62,1.61-3.01,3.38-3.04Z"/><path id="outl22" d="M245.73,333.51c.02,1.81-1.31,3.15-3.12,3.13-1.96-.03-3.81-1.78-3.79-3.59.01-1.77,1.33-3.04,3.2-3.09,2.06-.06,3.69,1.5,3.71,3.55Z"/><path id="outl21" d="M146.87,261.56c2.09-.28,3.64,2.13,3.56,3.7-.09,1.6-1.46,3-3.04,3.03-1.86.03-3.81-1.76-3.87-3.57-.06-1.89,1.29-3.18,3.35-3.16Z"/><path id="outl20" d="M76.82,29.17c2.03.04,3.61,1.74,3.51,3.75-.09,1.66-1.38,2.9-3.08,2.92-2.05.03-3.91-1.83-3.81-3.8.09-1.75,1.46-2.91,3.38-2.87Z"/><path id="outl19" d="M186.92,59.1c1.89-.07,3.45,1.41,3.59,3.4.13,1.92-.99,3.22-2.85,3.31-1.91.1-3.89-1.57-4.01-3.37-.13-1.77,1.34-3.26,3.27-3.33Z"/><path id="outl18" d="M99.94,314.75c.03,1.82-1.27,3.14-3.09,3.15-1.96,0-3.79-1.72-3.8-3.58,0-1.82,1.46-3.18,3.44-3.18,1.76,0,3.42,1.73,3.45,3.6Z"/><path id="outl17" d="M31.47,127.67c-1.92.04-3.83-1.7-3.87-3.54-.04-1.84,1.41-3.17,3.43-3.15,1.84.02,3.49,1.65,3.56,3.51.06,1.71-1.34,3.14-3.12,3.18Z"/><path id="outl16" d="M196.2,200.4c.06,1.79-1.26,3.15-3.08,3.18-1.91.03-3.77-1.73-3.79-3.58-.02-1.75,1.28-3.06,3.13-3.16,1.97-.1,3.67,1.52,3.74,3.56Z"/><path id="outl15" d="M295.82,244.76c-1.97-.04-3.8-1.79-3.77-3.61.03-1.74,1.66-3.17,3.54-3.1,1.85.08,3.34,1.7,3.35,3.67.01,1.91-1.19,3.08-3.12,3.03Z"/><path id="outl14" d="M288.37,180.11c-1.97-.01-3.73-1.71-3.72-3.61,0-1.77,1.29-2.99,3.2-3.04,2.03-.06,3.62,1.51,3.64,3.59.02,1.85-1.22,3.07-3.12,3.06Z"/><path id="outl13" d="M120.48,390.67c.03,1.81-1.25,3.1-3.09,3.11-1.84.01-3.8-1.81-3.83-3.56-.03-1.71,1.31-2.98,3.22-3.05,2.08-.07,3.67,1.43,3.7,3.51Z"/><path id="outl12" d="M216.15,113.49c-.28-1.23-.43-2.24-1.04-2.97.35-.76,1.05-.37,1.41-.68,1.27-1.07,1.41-.58,2.12.78.81,1.55.84,1.82-.85,1.96-.46.04-.88.47-1.64.91Z"/><path id="outl11" d="M209.61,183.99c-1.46.8-2.71.42-3.34,1.82-.74-1.24-.72-2.43-1.54-3.13.23-.28.36-.53.44-.51,1.06.24,1.96-1.41,2.74-.59.52.54.4,1.77,1.7,2.41Z"/><path id="outl10" d="M167.67,80.6c-.18-1.37-.64-2.25-1.29-2.88.57-.86,1.34-.56,1.81-.91,1.18-.86,1.71-.61,1.69.86,0,.65.97.79.87,1.64-.93.44-2.25.04-3.08,1.29Z"/><path id="outl9" d="M105.76,36.32c.03-1.09-.29-1.94-.97-2.52.29-1.08,1.25-.58,1.76-1.01,1.11-.95,1.66-.74,1.63.79,0,.26.36.54.57.8.58.7.31,1.26-.47,1.2-.89-.07-1.38.71-2.52.74Z"/><path id="outl8" d="M33.54,153.45c1.22-.5,2.21-.91,3.38-1.39.17,1.2.56,2.17,1.52,3.12-1.36.29-2.46.37-3.42,1.49-.38-1.31-.5-2.39-1.47-3.22Z"/><path id="outl7" d="M161.84,247.87c1.19-.03,1.95-.68,3-1.15.4,1.05.31,2.25,1.49,2.88-1.16.73-2.48.33-3.19,2-.55-1.59-.74-2.66-1.3-3.73Z"/><path id="outl6" d="M33.06,73.02c.07-1.32-.93-2.03-1.15-3.15,1.06-.36,2.07-.56,3.08-1.4.17,1.35.53,2.35,1.47,3.25-1.21.54-2.46.31-3.4,1.3Z"/><path id="outl5" d="M54.76,44.35c1.58-.06,2.49-.29,3.34-1.01.71.96.25,2.36,2.03,2.78-1.49.9-2.8.54-3.56,1.92-.42-1.44-.73-2.47-1.81-3.7Z"/><path id="outl4" d="M64.92,200.53c-.07-1.28-.62-2.14-1.48-3.07,1.15-.46,2.14-.85,3.33-1.33.12,1.2.52,2.17,1.53,3.06-1.28.42-2.52.22-3.38,1.34Z"/><path id="outl4-2" d="M141.29,282.39c.22.23.46.42.43.47-.7,1.22,1.51,1.75.79,2.59-.57.67-1.97.34-2.55,1.17-.51-.03-.65-.34-.58-.52.46-1.08-1.69-1.77-.55-2.66.62-.49,1.69-.65,2.45-1.05Z"/><path id="outl3" d="M98.15,176.8c1.19-.41,2.11-.61,3.01-1.37.51,1.1.54,2.25,1.72,3.04-1.27.6-2.51.45-3.23,1.55-.91-1.02-.3-2.44-1.51-3.21Z"/><path id="outl2" d="M96.54,219.55c.16,1.2.56,2.11,1.42,2.79-.81,1.17-2.36.23-2.96,1.66-.46-1.27-.76-2.23-1.59-3.09,1.1-.57,2.21-.56,3.12-1.36Z"/><path id="outl1" d="M307,271.26c.45.83-.13,2.25,1.3,2.5-.45.96-1.03.74-1.52.75-.69.02-1.15,1.23-1.8.6-.57-.56-.39-1.63-.98-2.34-.24-.29.06-.61.48-.7.42-.09.85-.16,1.23-.34.37-.18.6-.65,1.29-.47Z"/></svg>